<?xml version="1.0" encoding="UTF-8" ?>
<!DOCTYPE svg PUBLIC "-//W3C//DTD SVG 1.1//EN" "http://www.w3.org/Graphics/SVG/1.1/DTD/svg11.dtd">
<!--width="228pt" height="268pt" -->
<svg width='512px' height='512px' viewBox="0 0 228 268" version="1.1" xmlns="http://www.w3.org/2000/svg">
<style>
*{background-color:transparent}
.svg-ico-R1{fill:#000}.svg-ico-R2{fill:rgb(0, 90, 240)}
  @media (prefers-color-scheme: dark) {
      .svg-ico-R1 { fill: #fff; }
      *{background-color:transparent}
    }
</style>
<g>
<path class='svg-ico-R1' opacity="1.00" d=" M 15.40 17.35 C 34.60 17.38 53.80 17.37 73.00 17.36 C 53.81 43.30 34.59 69.22 15.30 95.09 C 15.48 69.18 15.26 43.26 15.40 17.35 Z" />
<path class='svg-ico-R2' opacity="1.00" d=" M 82.33 17.39 C 95.88 17.33 109.44 17.38 122.99 17.37 C 139.08 17.67 155.65 19.59 170.23 26.84 C 152.80 49.93 135.08 72.81 117.73 95.96 C 110.64 90.21 103.88 84.06 96.86 78.22 C 69.62 116.86 42.65 155.68 15.33 194.25 C 15.41 166.84 15.35 139.44 15.35 112.03 C 15.43 109.87 15.11 107.65 15.59 105.53 C 37.83 76.15 60.13 46.81 82.33 17.39 Z" />
<path class='svg-ico-R2' opacity="1.00" d=" M 173.27 34.17 C 174.20 32.84 174.52 30.86 176.04 30.08 C 178.92 30.69 181.09 33.02 183.50 34.59 C 194.56 42.33 202.68 53.82 207.30 66.43 C 212.49 81.31 213.27 97.76 209.29 113.02 C 205.60 127.00 197.18 139.76 185.56 148.41 C 178.48 153.91 170.30 157.89 161.81 160.69 C 164.57 166.26 168.04 171.45 170.78 177.02 C 154.79 195.54 139.41 214.58 123.38 233.06 C 112.45 211.89 101.29 190.84 90.27 169.71 C 89.86 168.72 89.14 168.05 88.13 167.70 C 88.08 195.02 88.16 222.35 88.09 249.67 C 63.85 249.62 39.61 249.61 15.37 249.68 C 15.50 233.20 15.08 216.66 15.56 200.23 C 42.08 166.91 69.27 134.11 95.91 100.87 C 105.46 107.62 114.16 115.52 123.63 122.39 C 140.13 92.96 156.75 63.59 173.27 34.17 Z" />
<path class='svg-ico-R1' opacity="1.00" d=" M 130.83 236.82 C 145.59 219.29 160.28 201.70 175.07 184.20 C 187.35 206.07 199.83 227.81 212.19 249.63 C 185.53 249.67 158.88 249.59 132.22 249.67 C 130.86 247.04 129.14 244.58 128.17 241.77 C 127.54 239.62 129.74 238.33 130.83 236.82 Z" />


</g>
</svg>
