<?xml version="1.0" encoding="UTF-8" ?>
<!DOCTYPE svg PUBLIC "-//W3C//DTD SVG 1.1//EN" "http://www.w3.org/Graphics/SVG/1.1/DTD/svg11.dtd">
<svg width="848px" height="268px" viewBox="0 0 848 268" version="1.1" xmlns="http://www.w3.org/2000/svg">
<!--Design by Ahmad Ramadhan, & logo R by freepik-->
<g>
<path opacity="1.00" d=" M 15.39 17.35 C 34.60 17.38 53.81 17.36 73.02 17.37 C 53.78 43.30 34.58 69.25 15.27 95.13 C 15.51 69.21 15.26 43.28 15.39 17.35 Z" />
<path fill='rgb(0, 90, 240)' opacity="1.00" d=" M 82.38 17.36 C 95.92 17.38 109.46 17.34 123.00 17.38 C 139.13 17.58 155.61 19.73 170.30 26.76 C 152.81 49.87 135.13 72.83 117.68 95.97 C 110.65 90.15 103.84 84.07 96.84 78.22 C 69.65 116.90 42.57 155.66 15.34 194.32 C 15.44 164.74 15.26 135.16 15.42 105.58 C 37.91 76.30 60.04 46.75 82.38 17.36 Z" />
<path fill='rgb(0, 90, 240)' opacity="1.00" d=" M 171.09 38.09 C 172.67 35.34 173.99 32.42 175.91 29.87 C 186.37 35.21 195.14 43.77 201.24 53.78 C 210.74 69.38 213.64 88.52 210.71 106.42 C 208.07 122.95 199.00 138.45 185.52 148.44 C 178.44 153.95 170.25 157.87 161.78 160.73 C 164.68 166.20 167.90 171.48 170.81 176.94 C 154.90 195.56 139.34 214.48 123.44 233.11 C 113.12 213.32 102.77 193.54 92.38 173.78 C 91.27 171.49 90.12 169.17 88.26 167.39 C 87.93 194.81 88.23 222.24 88.10 249.67 C 63.86 249.62 39.61 249.61 15.37 249.67 C 15.34 234.12 15.40 218.57 15.33 203.01 C 15.22 201.39 15.53 199.77 16.72 198.58 C 43.10 165.96 69.64 133.46 95.98 100.81 C 105.37 107.77 114.25 115.39 123.57 122.43 C 139.41 94.32 155.23 66.20 171.09 38.09 Z" />
<path opacity="1.00" d=" M 263.33 85.73 C 269.48 84.18 276.02 85.22 282.32 85.17 C 284.66 86.03 287.18 86.17 289.63 86.52 C 290.93 87.01 292.26 87.45 293.63 87.70 C 294.11 87.81 295.07 88.02 295.54 88.13 C 296.52 88.72 297.50 89.32 298.48 89.92 C 298.99 89.96 300.02 90.03 300.54 90.07 C 304.35 92.68 308.55 94.84 311.77 98.23 C 314.55 101.19 317.91 103.73 319.80 107.42 C 320.74 109.11 321.77 110.75 322.78 112.40 C 323.07 113.47 323.39 114.53 323.72 115.59 C 323.87 116.04 324.18 116.94 324.33 117.39 C 324.56 118.75 324.97 120.08 325.46 121.37 C 326.14 124.11 325.66 127.07 326.84 129.68 C 326.99 131.97 327.19 134.30 326.90 136.60 C 325.67 138.76 323.01 137.82 321.00 138.03 C 312.14 137.86 303.26 138.21 294.41 137.89 C 291.50 135.64 294.05 131.30 292.25 128.34 C 292.11 127.39 291.98 126.45 291.86 125.50 C 291.32 124.53 290.80 123.56 290.30 122.58 C 288.67 118.05 284.77 115.00 280.51 113.12 C 279.55 113.00 278.60 112.88 277.65 112.76 C 274.71 111.55 271.34 111.65 268.37 112.69 C 267.90 112.81 266.96 113.04 266.50 113.15 C 261.99 114.64 259.24 118.43 257.13 122.45 C 257.02 122.93 256.80 123.87 256.70 124.35 C 255.36 128.25 256.18 132.44 256.05 136.48 C 258.91 142.74 264.40 147.41 270.55 150.29 C 271.86 151.00 273.21 151.64 274.57 152.25 C 275.89 152.96 277.22 153.63 278.59 154.25 C 279.56 154.77 280.53 155.31 281.48 155.87 C 281.97 155.96 282.93 156.14 283.41 156.23 C 284.46 156.58 285.51 156.92 286.57 157.25 C 287.54 157.80 288.52 158.34 289.50 158.88 C 290.00 158.94 291.00 159.06 291.50 159.12 C 292.01 159.41 293.04 160.01 293.55 160.30 C 306.41 166.28 319.16 174.98 324.85 188.51 C 324.93 188.99 325.09 189.96 325.16 190.45 C 325.61 191.44 326.05 192.43 326.49 193.43 C 326.79 195.39 327.07 197.35 327.28 199.33 C 328.28 201.75 327.99 204.42 328.04 206.97 C 327.94 210.20 328.39 213.53 327.35 216.65 C 327.05 218.33 326.76 220.02 326.27 221.65 C 326.11 222.59 325.97 223.53 325.83 224.47 C 323.71 228.40 322.02 232.61 319.20 236.12 C 315.59 240.29 311.57 244.24 306.60 246.76 C 304.53 247.73 302.48 248.75 300.48 249.84 C 300.00 249.92 299.04 250.09 298.56 250.18 C 297.14 250.63 295.85 251.37 294.44 251.82 C 293.50 251.93 292.57 252.08 291.65 252.28 C 289.43 253.15 287.01 253.01 284.68 253.21 C 278.90 254.89 272.65 253.75 266.68 253.83 C 264.34 252.89 261.75 253.01 259.35 252.32 C 258.45 252.10 257.55 251.88 256.65 251.68 C 255.24 251.38 253.83 251.04 252.42 250.76 C 251.44 250.21 250.47 249.66 249.51 249.11 C 249.01 249.05 248.01 248.94 247.51 248.88 C 246.54 248.34 245.56 247.81 244.58 247.30 C 234.87 242.49 226.36 234.73 222.26 224.54 C 221.93 223.49 221.60 222.45 221.27 221.41 C 221.12 220.97 220.80 220.07 220.65 219.63 C 220.30 217.97 219.94 216.32 219.65 214.65 C 218.27 209.56 219.30 204.20 219.00 199.00 C 229.98 199.00 240.96 199.00 251.94 199.00 C 251.99 200.77 252.05 202.54 252.18 204.32 C 253.12 206.67 252.93 209.27 253.74 211.66 C 253.87 212.60 254.00 213.55 254.12 214.51 C 256.29 219.62 260.39 223.70 265.49 225.88 C 266.44 225.99 267.39 226.11 268.35 226.24 C 272.26 227.48 276.75 227.50 280.66 226.22 C 281.64 226.12 282.63 226.03 283.62 225.95 C 287.72 223.52 290.98 219.88 292.88 215.51 C 292.99 214.55 293.11 213.60 293.24 212.66 C 294.42 209.71 294.42 206.29 293.24 203.35 C 293.11 202.39 292.99 201.44 292.88 200.49 C 290.31 194.57 285.19 190.23 279.61 187.23 C 277.87 186.41 276.14 185.58 274.42 184.73 C 273.45 184.27 272.49 183.78 271.55 183.27 C 270.50 182.91 269.45 182.57 268.41 182.23 C 267.92 182.14 266.95 181.97 266.46 181.89 C 265.48 181.29 264.50 180.69 263.53 180.09 C 263.02 180.04 262.01 179.94 261.50 179.89 C 260.99 179.60 259.96 179.01 259.45 178.71 C 257.16 177.55 254.83 176.47 252.58 175.25 C 250.85 174.42 249.11 173.60 247.39 172.76 C 238.66 167.40 229.30 161.48 225.25 151.57 C 224.98 151.05 224.44 150.02 224.17 149.50 C 224.05 149.03 223.81 148.09 223.69 147.62 C 223.45 146.25 223.02 144.92 222.53 143.63 C 222.16 141.18 222.02 138.67 221.18 136.32 C 221.04 132.67 220.42 128.84 221.73 125.33 C 221.89 123.33 222.20 121.35 222.53 119.37 C 223.01 118.07 223.45 116.75 223.71 115.38 C 223.81 114.91 224.02 113.96 224.12 113.48 C 228.95 103.79 236.47 95.11 246.55 90.72 C 248.18 89.88 249.84 89.09 251.48 88.28 C 252.85 87.95 254.22 87.59 255.63 87.38 C 256.06 87.19 256.93 86.80 257.36 86.60 C 259.32 86.15 261.32 85.91 263.33 85.73 Z" />
<path opacity="1.00" d=" M 426.68 85.17 C 433.31 85.26 440.23 84.10 446.68 85.79 C 449.01 85.97 451.43 85.86 453.65 86.72 C 454.57 86.91 455.50 87.06 456.44 87.18 C 457.85 87.62 459.14 88.37 460.56 88.83 C 461.04 88.91 462.00 89.07 462.48 89.16 C 463.81 89.90 465.19 90.56 466.57 91.25 C 472.31 93.82 477.29 97.94 481.03 102.99 C 483.39 106.24 484.92 109.99 486.81 113.52 C 486.94 113.98 487.18 114.91 487.31 115.38 C 487.55 116.74 487.96 118.07 488.47 119.37 C 489.36 122.42 488.42 125.79 489.86 128.69 C 489.96 130.59 489.96 132.51 489.96 134.42 C 489.63 135.07 488.96 136.36 488.62 137.00 C 478.55 136.90 468.46 137.19 458.40 136.89 C 455.50 134.64 458.06 130.31 456.24 127.35 C 456.11 126.39 455.99 125.44 455.88 124.49 C 453.97 120.12 450.73 116.47 446.61 114.06 C 446.12 113.98 445.14 113.80 444.65 113.72 C 443.00 113.26 441.32 112.95 439.65 112.67 C 437.92 111.87 436.02 111.78 434.33 112.75 C 432.31 112.94 430.27 113.04 428.34 113.71 C 427.86 113.81 426.90 114.00 426.42 114.09 C 424.13 115.54 421.96 117.18 419.86 118.89 C 417.39 121.72 415.93 125.24 414.16 128.51 C 414.01 129.46 413.87 130.40 413.73 131.34 C 412.94 133.74 413.12 136.34 412.17 138.68 C 411.75 157.43 412.16 176.20 411.96 194.96 C 411.96 197.21 411.82 199.55 412.74 201.67 C 412.94 203.68 413.03 205.73 413.73 207.65 C 413.88 208.59 414.02 209.53 414.17 210.48 C 416.85 217.57 422.50 223.12 429.55 225.87 C 431.14 225.96 432.73 226.06 434.33 226.20 C 436.17 227.23 438.30 226.99 440.32 226.89 C 442.89 225.51 445.97 226.37 448.65 225.30 C 449.13 225.20 450.08 224.99 450.55 224.89 C 453.15 223.32 455.66 221.61 458.04 219.72 C 457.94 209.48 458.03 199.24 458.00 189.00 C 450.13 188.89 442.25 189.20 434.40 188.89 C 434.07 188.57 433.43 187.92 433.11 187.60 C 432.80 180.08 433.11 172.53 433.00 165.00 C 452.67 165.00 472.33 165.00 492.00 165.00 C 492.00 186.85 492.00 208.71 492.00 230.56 C 486.37 236.23 480.86 242.20 473.53 245.71 C 472.47 246.41 471.43 247.14 470.42 247.89 C 469.93 247.94 468.96 248.04 468.47 248.09 C 467.49 248.69 466.51 249.30 465.54 249.90 C 465.04 249.97 464.05 250.09 463.56 250.15 C 462.56 250.61 461.56 251.05 460.57 251.48 C 458.91 251.68 457.27 252.01 455.65 252.36 C 452.94 253.28 449.93 252.59 447.32 253.84 C 441.11 254.10 434.89 254.11 428.68 253.83 C 426.06 252.68 423.11 253.12 420.37 252.47 C 419.07 251.97 417.75 251.57 416.39 251.33 C 415.94 251.18 415.03 250.88 414.58 250.73 C 413.54 250.39 412.50 250.06 411.47 249.73 C 410.16 248.99 408.78 248.38 407.41 247.79 C 398.71 243.53 391.01 237.09 386.23 228.57 C 385.24 226.86 384.13 225.22 383.11 223.53 C 383.04 223.04 382.90 222.06 382.83 221.57 C 382.40 220.14 381.62 218.87 381.21 217.45 C 381.08 216.99 380.82 216.07 380.68 215.61 C 380.43 214.25 380.01 212.92 379.52 211.64 C 379.21 209.65 378.89 207.67 378.73 205.67 C 378.27 204.51 378.02 203.31 377.99 202.07 C 377.99 180.71 378.04 159.35 377.96 138.00 C 377.93 136.41 378.13 134.81 378.73 133.33 C 378.89 131.33 379.20 129.35 379.53 127.37 C 379.99 126.05 380.48 124.73 380.75 123.35 C 380.86 122.38 380.98 121.41 381.12 120.45 C 381.71 119.48 382.31 118.50 382.91 117.53 C 382.96 117.03 383.08 116.03 383.13 115.52 C 385.02 112.02 386.67 108.32 389.29 105.27 C 394.46 99.99 399.41 94.13 406.43 91.25 C 407.80 90.57 409.18 89.90 410.52 89.16 C 411.00 89.08 411.96 88.91 412.45 88.83 C 413.85 88.38 415.14 87.62 416.56 87.18 C 417.49 87.06 418.42 86.91 419.35 86.72 C 421.74 85.94 424.34 86.13 426.68 85.17 Z" />
<path opacity="1.00" d=" M 765.68 85.17 C 771.64 85.22 777.85 84.18 783.67 85.74 C 785.67 85.94 787.72 86.03 789.65 86.73 C 790.56 86.91 791.49 87.06 792.45 87.17 C 793.84 87.63 795.14 88.36 796.55 88.83 C 797.04 88.91 798.01 89.06 798.50 89.14 C 799.02 89.42 800.05 89.97 800.57 90.25 C 805.22 92.41 809.29 95.57 813.26 98.75 C 817.92 103.12 820.92 108.91 823.84 114.51 C 823.94 114.99 824.13 115.95 824.22 116.43 C 824.78 118.14 825.25 119.88 825.78 121.61 C 825.91 122.85 826.05 124.10 826.25 125.34 C 827.55 128.93 827.04 132.87 826.88 136.60 C 826.56 136.92 825.92 137.57 825.61 137.89 C 815.22 138.08 804.79 138.09 794.40 137.89 C 791.34 135.35 794.20 130.61 792.25 127.34 C 792.11 126.39 791.99 125.44 791.88 124.49 C 789.69 119.39 785.62 115.28 780.51 113.13 C 780.04 113.02 779.11 112.80 778.64 112.69 C 775.33 111.61 771.63 111.57 768.35 112.72 C 767.86 112.80 766.88 112.98 766.39 113.06 C 762.27 115.47 759.02 119.11 757.13 123.49 C 757.02 123.96 756.80 124.90 756.69 125.36 C 755.59 128.99 755.55 133.04 756.72 136.65 C 756.81 137.14 756.98 138.12 757.06 138.61 C 760.69 144.86 767.29 148.40 773.41 151.77 C 775.14 152.58 776.87 153.41 778.59 154.26 C 779.56 154.77 780.52 155.31 781.48 155.87 C 781.96 155.96 782.93 156.14 783.41 156.23 C 784.45 156.58 785.51 156.92 786.57 157.25 C 787.54 157.80 788.51 158.34 789.50 158.88 C 789.99 158.94 790.99 159.07 791.48 159.14 C 793.74 160.44 796.12 161.52 798.44 162.73 C 804.47 165.59 810.25 169.25 814.77 174.24 C 818.33 177.54 821.56 181.20 823.93 185.46 C 823.97 185.98 824.05 187.00 824.08 187.52 C 824.67 188.49 825.27 189.47 825.87 190.46 C 825.98 190.93 826.20 191.88 826.31 192.35 C 826.73 194.00 827.04 195.67 827.35 197.35 C 828.39 200.45 827.94 203.76 828.01 206.98 C 827.87 210.85 828.48 214.83 827.40 218.62 C 827.02 219.92 826.68 221.23 826.40 222.55 C 826.01 223.56 825.60 224.57 825.18 225.56 C 825.10 226.05 824.96 227.02 824.89 227.51 C 820.35 236.54 812.77 244.25 803.43 248.26 C 802.44 248.79 801.47 249.32 800.51 249.87 C 800.02 249.95 799.05 250.10 798.56 250.18 C 797.56 250.61 796.56 251.02 795.55 251.40 C 794.22 251.69 792.90 252.03 791.62 252.40 C 789.66 252.86 787.65 253.07 785.67 253.27 C 782.25 254.59 778.51 253.83 774.95 254.01 C 771.74 253.89 768.38 254.50 765.33 253.26 C 763.31 253.05 761.27 252.96 759.35 252.29 C 758.42 252.10 757.50 251.93 756.60 251.77 C 755.56 251.45 754.54 251.09 753.54 250.70 C 752.14 250.25 750.80 249.66 749.42 249.20 C 748.94 249.12 747.97 248.97 747.49 248.89 C 745.13 247.52 742.73 246.24 740.43 244.78 C 733.52 240.75 727.42 235.04 724.25 227.57 C 723.57 226.19 722.90 224.81 722.15 223.48 C 722.07 223.00 721.91 222.03 721.83 221.55 C 721.38 220.56 720.94 219.56 720.51 218.57 C 720.20 216.61 719.91 214.64 719.72 212.67 C 718.26 208.27 719.27 203.54 719.01 199.00 C 729.87 199.10 740.74 198.82 751.59 199.11 C 754.78 201.95 751.65 207.08 753.75 210.66 C 753.88 211.60 754.01 212.54 754.15 213.49 C 754.42 214.01 754.98 215.05 755.26 215.56 C 756.67 219.67 759.78 222.64 763.47 224.75 C 764.50 225.07 765.54 225.39 766.58 225.72 C 767.03 225.88 767.92 226.20 768.37 226.36 C 772.67 227.37 777.37 227.48 781.65 226.30 C 782.12 226.19 783.07 225.98 783.55 225.88 C 787.68 223.90 790.89 220.67 792.90 216.55 C 792.99 215.58 793.10 214.62 793.24 213.66 C 794.47 210.06 794.46 205.93 793.24 202.34 C 793.10 201.37 792.99 200.41 792.89 199.45 C 790.40 194.57 786.63 190.47 781.55 188.26 C 779.84 187.24 778.20 186.13 776.52 185.08 C 776.01 185.04 774.98 184.96 774.47 184.93 C 773.48 184.31 772.50 183.69 771.53 183.08 C 771.02 183.04 769.99 182.96 769.47 182.92 C 768.48 182.31 767.50 181.69 766.53 181.08 C 766.01 181.04 764.99 180.96 764.47 180.92 C 763.48 180.31 762.50 179.69 761.53 179.08 C 761.02 179.04 760.01 178.94 759.50 178.89 C 758.99 178.60 757.96 178.01 757.45 177.71 C 756.12 177.02 754.77 176.37 753.42 175.74 C 752.46 175.26 751.51 174.78 750.56 174.31 C 748.42 173.28 746.48 171.93 744.42 170.78 C 741.40 169.15 738.66 167.08 736.06 164.86 C 731.20 161.62 728.32 156.37 725.18 151.61 C 724.92 150.55 724.66 149.49 724.38 148.45 C 723.98 147.44 723.59 146.43 723.20 145.43 C 723.03 144.50 722.88 143.57 722.73 142.65 C 721.58 139.89 722.04 136.85 721.99 133.95 C 722.17 129.42 721.50 124.83 722.53 120.37 C 723.02 119.07 723.44 117.74 723.69 116.37 C 723.81 115.91 724.06 114.98 724.18 114.51 C 725.12 112.91 725.80 111.16 726.70 109.53 C 730.80 101.08 738.38 94.95 746.57 90.69 C 747.53 90.22 748.49 89.74 749.46 89.25 C 750.48 88.97 751.51 88.67 752.55 88.36 C 753.55 87.98 754.56 87.59 755.57 87.21 C 756.49 87.05 757.41 86.88 758.35 86.71 C 760.74 85.96 763.33 86.12 765.68 85.17 Z" />
<path opacity="1.00" d=" M 334.99 89.94 C 334.64 88.23 336.24 86.64 337.96 86.99 C 348.30 86.98 358.65 87.01 369.00 87.00 C 369.01 140.99 368.99 194.99 369.01 248.98 C 369.36 250.70 367.81 252.37 366.07 252.01 C 356.69 252.00 347.32 252.00 337.95 252.01 C 336.22 252.37 334.64 250.74 334.99 249.03 C 335.01 196.00 335.00 142.97 334.99 89.94 Z" />
<path opacity="1.00" d=" M 499.99 90.02 C 499.62 88.27 501.21 86.63 502.98 86.99 C 512.30 87.00 521.63 87.00 530.96 86.99 C 532.69 86.62 534.35 88.18 534.01 89.93 C 534.00 112.29 534.00 134.64 534.00 157.00 C 550.33 157.00 566.67 157.00 583.00 157.00 C 583.00 134.65 583.00 112.31 582.99 89.96 C 582.64 88.25 584.21 86.64 585.94 86.99 C 630.97 87.00 676.01 87.01 721.05 86.99 C 722.74 86.65 724.35 88.22 724.01 89.94 C 723.92 97.83 724.17 105.73 723.89 113.62 C 723.56 113.93 722.91 114.57 722.59 114.89 C 710.40 115.18 698.19 114.90 686.00 115.00 C 686.00 159.68 685.99 204.37 686.01 249.05 C 686.36 250.79 684.72 252.36 683.02 252.01 C 673.67 252.00 664.32 252.00 654.98 252.01 C 653.28 252.36 651.65 250.81 651.99 249.10 C 652.01 204.40 652.00 159.70 652.00 115.00 C 640.33 115.00 628.67 115.00 617.00 115.00 C 616.92 160.20 617.15 205.41 616.89 250.59 C 616.57 250.92 615.93 251.57 615.60 251.89 C 605.72 252.17 595.81 251.92 585.92 252.01 C 584.21 252.34 582.63 250.74 582.99 249.05 C 583.00 227.37 583.00 205.68 583.00 184.00 C 566.67 184.00 550.33 184.00 534.00 184.00 C 533.92 206.20 534.16 228.42 533.89 250.61 C 533.56 250.93 532.91 251.57 532.59 251.89 C 522.72 252.17 512.83 251.92 502.96 252.01 C 501.21 252.36 499.63 250.73 499.99 249.00 C 500.01 196.00 500.01 143.01 499.99 90.02 Z" />
<path opacity="1.00" d=" M 128.96 239.01 C 144.37 220.78 159.65 202.43 175.07 184.21 C 187.37 206.06 199.82 227.83 212.21 249.63 C 185.54 249.66 158.87 249.61 132.20 249.66 C 130.92 247.28 129.46 244.99 128.44 242.49 C 127.86 241.33 127.98 239.91 128.96 239.01 Z" />
</g>
</svg>
